<svg viewBox="0 0 24 24" fill="currentColor" class="NavigationLinkWithLocale__icon"><path fill-rule="evenodd" clip-rule="evenodd" d="M.646 0A.646.646 0 0 0 0 .646V4.5a3.5 3.5 0 0 0 6.25 2.165A3.494 3.494 0 0 0 9 8c1.116 0 2.11-.522 2.75-1.335a3.498 3.498 0 0 0 5.75-.362A3.5 3.5 0 0 0 24 4.5V.647A.646.646 0 0 0 23.354 0h-5.708a.647.647 0 0 0-.146.017.647.647 0 0 0-.146-.017H.646ZM2 2v2.5a1.5 1.5 0 1 0 3 0V2H2Zm17 0v2.5a1.5 1.5 0 0 0 3 0V2h-3Zm-6 2.5V2h3v2.5a1.5 1.5 0 0 1-3 0ZM7.5 2v2.5a1.5 1.5 0 1 0 3 0V2h-3Z"></path><path fill-rule="evenodd" clip-rule="evenodd" d="M1 22V8.45a3.491 3.491 0 0 0 2 1.015V22h8V12h7.5v10H21V9.465a3.49 3.49 0 0 0 2-1.016V22a1 1 0 1 1 0 2H1a1 1 0 1 1 0-2Zm12 0h3.5v-8H13v8Z"></path><path d="M5.5 12a.5.5 0 0 0-.5.5v3a.5.5 0 0 0 .5.5h3a.5.5 0 0 0 .5-.5v-3a.5.5 0 0 0-.5-.5h-3Z"></path></svg>