<svg xmlns="http://www.w3.org/2000/svg" xmlns:xlink="http://www.w3.org/1999/xlink" viewBox="0 0 1920 692" width="1920" height="692" preserveAspectRatio="xMidYMid meet" style="width: 100%; height: 100%; transform: translate3d(0px, 0px, 0px); content-visibility: visible;"><defs><clipPath id="__lottie_element_3"><rect width="1920" height="692" x="0" y="0"></rect></clipPath><clipPath id="__lottie_element_5"><path d="M0,0 L1920,0 L1920,1080 L0,1080z"></path></clipPath><clipPath id="__lottie_element_9"><path d="M0,0 L1920,0 L1920,1080 L0,1080z"></path></clipPath><clipPath id="__lottie_element_13"><path d="M0,0 L1920,0 L1920,1080 L0,1080z"></path></clipPath><clipPath id="__lottie_element_17"><path d="M0,0 L1920,0 L1920,1080 L0,1080z"></path></clipPath><clipPath id="__lottie_element_21"><path d="M0,0 L1920,0 L1920,1080 L0,1080z"></path></clipPath><clipPath id="__lottie_element_25"><path d="M0,0 L1920,0 L1920,1080 L0,1080z"></path></clipPath><mask id="__lottie_element_26"><rect fill="#ffffff" width="1920" height="1080" transform="matrix(1,0,0,1,0,0)"></rect><path fill="#000000" clip-rule="nonzero" d=" M1101,414 C1045,387 914,470 917,470 C920,470 1083,507 1099,506 C1115,505 1157,441 1101,414" fill-opacity="1"></path></mask><clipPath id="__lottie_element_29"><path d="M0,0 L1920,0 L1920,1080 L0,1080z"></path></clipPath><clipPath id="__lottie_element_33"><path d="M0,0 L1920,0 L1920,1080 L0,1080z"></path></clipPath><clipPath id="__lottie_element_76"><path d="M0,0 L1920,0 L1920,1080 L0,1080z"></path></clipPath><clipPath id="__lottie_element_80"><path d="M0,0 L1920,0 L1920,1080 L0,1080z"></path></clipPath><clipPath id="__lottie_element_90"><path d="M0,0 L1920,0 L1920,1080 L0,1080z"></path></clipPath><clipPath id="__lottie_element_106"><path d="M0,0 L1920,0 L1920,1080 L0,1080z"></path></clipPath><clipPath id="__lottie_element_110"><path d="M0,0 L1920,0 L1920,1080 L0,1080z"></path></clipPath><mask id="__lottie_element_111"><rect fill="#ffffff" width="1920" height="1080" transform="matrix(1,0,0,1,0,0)"></rect><path fill="#000000" clip-rule="nonzero" d=" M1101,414 C1045,387 914,470 917,470 C920,470 1083,507 1099,506 C1115,505 1157,441 1101,414" fill-opacity="1"></path></mask><clipPath id="__lottie_element_132"><path d="M0,0 L1920,0 L1920,1080 L0,1080z"></path></clipPath><clipPath id="__lottie_element_136"><path d="M0,0 L1920,0 L1920,1080 L0,1080z"></path></clipPath></defs><g clip-path="url(#__lottie_element_3)"><g clip-path="url(#__lottie_element_5)" transform="matrix(1,0,0,1,0,-197)" opacity="1" style="display: block;"><g clip-path="url(#__lottie_element_76)" transform="matrix(1,0,0,1,0,0)" opacity="1" style="display: none;"><g clip-path="url(#__lottie_element_132)" transform="matrix(1,0,0,1,0,0)" opacity="1" style="display: block;"><g transform="matrix(2.940000057220459,0,0,2.940000057220459,389.16998291015625,333.260009765625)" opacity="1" style="display: block;"><g opacity="1" transform="matrix(1,0,0,1,79.33499908447266,71.13200378417969)"><path id="woltLogoColor" fill="rgb(255,255,255)" fill-opacity="1" d="M0 0"></path></g><g opacity="1" transform="matrix(1,0,0,1,273.4599914550781,70.88999938964844)"><path id="woltLogoColor" fill="rgb(255,255,255)" fill-opacity="1" d=" M102.697998046875,-10.487000465393066 C108.95899963378906,-10.630999565124512 113.39199829101562,-12.541000366210938 114.47699737548828,-18.48900032043457 C115.12100219726562,-22.030000686645508 113.0469970703125,-24.292999267578125 109.02100372314453,-24.474000930786133 C109.02100372314453,-24.474000930786133 97.34300231933594,-25.09000015258789 83.8949966430664,-25.68400001525879 C83.8949966430664,-25.68400001525879 63.89699935913086,-26.5049991607666 58.31800079345703,-26.618999481201172 C53.327999114990234,-26.738000869750977 48.48500061035156,-26.77899932861328 45.11600112915039,-26.7189998626709 C41.97700119018555,-26.663000106811523 40.5,-25.058000564575195 39.85599899291992,-22.47100067138672 C39.2130012512207,-19.884000778198242 38.6870002746582,-16.209999084472656 38.474998474121094,-12.392000198364258 C38.31399917602539,-9.494999885559082 41.46500015258789,-8.125 44.7140007019043,-8.244000434875488 C44.7140007019043,-8.244000434875488 48.70600128173828,-8.425000190734863 54.95100021362305,-8.725000381469727 C62.027000427246094,-8.98900032043457 81.28299713134766,-9.847999572753906 81.28299713134766,-9.847999572753906 C88.04399871826172,-10.092000007629395 95.55599975585938,-10.322999954223633 102.697998046875,-10.487000465393066z"></path></g></g></g><g clip-path="url(#__lottie_element_136)" transform="matrix(1,0,0,1,0,0)" opacity="1" style="display: block;"><g transform="matrix(2.940000057220459,0,0,2.940000057220459,389.16998291015625,333.260009765625)" opacity="1" style="display: block;"><g opacity="1" transform="matrix(1,0,0,1,79.33499908447266,71.13200378417969)"><path id="woltLogoColor" fill="rgb(255,255,255)" fill-opacity="1" d="M0 0"></path></g><g opacity="1" transform="matrix(1,0,0,1,273.4599914550781,70.88999938964844)"><path id="woltLogoColor" fill="rgb(255,255,255)" fill-opacity="1" d=" M83.8949966430664,-25.68400001525879 C83.8949966430664,-25.68400001525879 86.61499786376953,-40.608001708984375 87.94599914550781,-46.68899917602539 C88.5989990234375,-49.67399978637695 87.02200317382812,-52.62699890136719 83.26000213623047,-53.540000915527344 C79.52300262451172,-54.44599914550781 70.93900299072266,-54.50600051879883 68.05799865722656,-54.18299865722656 C65.6510009765625,-53.91400146484375 63.3120002746582,-52.474998474121094 62.76900100708008,-49.979000091552734 C61.41299819946289,-43.7400016784668 60,-36.23500061035156 58.31800079345703,-26.618999481201172 C57.433998107910156,-22.16900062561035 55.73400115966797,-14.175999641418457 54.95100021362305,-8.725000381469727 C53.792999267578125,-3.259000062942505 51.57899856567383,11.413000106811523 50.60499954223633,20.518999099731445 C49.441001892089844,31.402999877929688 48.76100158691406,37.8650016784668 49.5260009765625,47.178001403808594 C51.731998443603516,64.04900360107422 60.53799819946289,70.71900177001953 74.86299896240234,70.71900177001953 C88.01300048828125,70.71900177001953 100.66899871826172,62.38199996948242 109.62799835205078,47.29199981689453 C111.41600036621094,44.28200149536133 112.72100067138672,41.650001525878906 111.58599853515625,40.34400177001953 C108.98300170898438,37.35200119018555 104.02100372314453,35.79899978637695 102.66400146484375,38.28200149536133 C96.75299835205078,49.099998474121094 90.40399932861328,53.45800018310547 83.49099731445312,53.45800018310547 C78.02400207519531,53.45800018310547 73.5989990234375,50.207000732421875 73.5989990234375,40.71799850463867 C73.5989990234375,27.06399917602539 81.28299713134766,-9.847999572753906 81.28299713134766,-9.847999572753906 C82.26399993896484,-14.005999565124512 83.28399658203125,-19.788000106811523 83.8949966430664,-25.68400001525879z"></path></g></g></g><g clip-path="url(#__lottie_element_106)" transform="matrix(1,0,0,1,0,0)" opacity="1" style="display: block;"><g transform="matrix(2.940000057220459,0,0,2.940000057220459,389.16998291015625,333.260009765625)" opacity="1" style="display: none;"><g opacity="1" transform="matrix(1,0,0,1,79.33499908447266,71.13200378417969)"><path id="woltLogoColor" fill="rgb(255,255,255)" fill-opacity="1" d="M0 0"></path></g><g opacity="1" transform="matrix(1,0,0,1,273.4599914550781,70.88999938964844)"><path id="woltLogoColor" fill="rgb(255,255,255)" fill-opacity="1" d=" M22.006999969482422,-15.692999839782715 C25.461000442504883,-33.5629997253418 29.202999114990234,-51.08000183105469 30.065000534057617,-60.625 C30.363000869750977,-63.92900085449219 32.45500183105469,-68.50499725341797 28.479000091552734,-69.29499816894531 C21.305999755859375,-70.72000122070312 14.484999656677246,-70.45700073242188 9.706999778747559,-68.96800231933594 C5.439000129699707,-67.63899993896484 4.564000129699707,-63.14799880981445 4.051000118255615,-60.75400161743164 C1.5859999656677246,-49.24599838256836 -2.4519999027252197,-28.85099983215332 -5.2779998779296875,-10.970999717712402 C-6.171000003814697,-4.822000026702881 16.85099983215332,3.815999984741211 22.006999969482422,-15.692999839782715z"></path></g></g><g transform="matrix(2.940000057220459,0,0,2.940000057220459,389.16998291015625,333.260009765625)" opacity="1" style="display: none;"><g opacity="1" transform="matrix(1,0,0,1,79.33499908447266,71.13200378417969)"><path id="woltLogoColor" fill="rgb(255,255,255)" fill-opacity="1" d="M0 0"></path></g><g opacity="1" transform="matrix(1,0,0,1,273.4599914550781,70.88999938964844)"><path id="woltLogoColor" fill="rgb(255,255,255)" fill-opacity="1" d=" M54.95100021362305,-8.725000381469727 C53.792999267578125,-3.259000062942505 51.481998443603516,11.402999877929688 50.60499954223633,20.518999099731445 C44.965999603271484,39.47100067138672 33.25600051879883,53.45899963378906 23.173999786376953,53.45899963378906 C16.99799919128418,53.45899963378906 13.3149995803833,49.792999267578125 13.3149995803833,38.672000885009766 C13.3149995803833,23.2810001373291 16.85099983215332,3.815999984741211 22.006999969482422,-15.692999839782715 C25.461000442504883,-33.5629997253418 29.202999114990234,-51.08000183105469 30.065000534057617,-60.625 C30.363000869750977,-63.92900085449219 32.45500183105469,-68.50499725341797 28.479000091552734,-69.29499816894531 C21.305999755859375,-70.72000122070312 14.484999656677246,-70.45700073242188 9.706999778747559,-68.96800231933594 C5.439000129699707,-67.63899993896484 4.564000129699707,-63.14799880981445 4.051000118255615,-60.75400161743164 C1.5859999656677246,-49.24599838256836 -2.4519999027252197,-28.85099983215332 -5.2779998779296875,-10.970999717712402 C-6.171000003814697,-4.822000026702881 -7.702000141143799,2.6610000133514404 -8.987000465393066,10.013999938964844 C-8.987000465393066,10.013999938964844 -13.029000282287598,30.43000030517578 -13.029000282287598,42.41600036621094 C-13.029000282287598,60.59000015258789 -5.230999946594238,70.71900177001953 13.088000297546387,70.71900177001953 C28.158000946044922,70.71900177001953 41.308998107910156,60.090999603271484 49.5260009765625,47.178001403808594 C57.263999938964844,34.29399871826172 69.03800201416016,-9.168000221252441 69.03800201416016,-9.168000221252441 C75.79900360107422,-9.411999702453613 48.70600128173828,-8.425000190734863 54.95100021362305,-8.725000381469727z"></path></g></g><g transform="matrix(2.940000057220459,0,0,2.940000057220459,389.16998291015625,333.260009765625)" opacity="1" style="display: block;"><g opacity="1" transform="matrix(1,0,0,1,79.33499908447266,71.13200378417969)"><path id="woltLogoColor" fill="rgb(255,255,255)" fill-opacity="1" d="M0 0"></path></g><g opacity="1" transform="matrix(1,0,0,1,273.4599914550781,70.88999938964844)"><path id="woltLogoColor" fill="rgb(255,255,255)" fill-opacity="1" d=" M54.95100021362305,-8.725000381469727 C53.792999267578125,-3.259000062942505 51.481998443603516,11.402999877929688 50.60499954223633,20.518999099731445 C44.965999603271484,39.47100067138672 33.25600051879883,53.45899963378906 23.173999786376953,53.45899963378906 C16.99799919128418,53.45899963378906 13.3149995803833,49.792999267578125 13.3149995803833,38.672000885009766 C13.3149995803833,23.2810001373291 16.85099983215332,3.815999984741211 22.006999969482422,-15.692999839782715 C25.461000442504883,-33.5629997253418 29.202999114990234,-51.08000183105469 30.065000534057617,-60.625 C30.363000869750977,-63.92900085449219 32.45500183105469,-68.50499725341797 28.479000091552734,-69.29499816894531 C21.305999755859375,-70.72000122070312 14.484999656677246,-70.45700073242188 9.706999778747559,-68.96800231933594 C5.439000129699707,-67.63899993896484 4.564000129699707,-63.14799880981445 4.051000118255615,-60.75400161743164 C1.5859999656677246,-49.24599838256836 -2.4519999027252197,-28.85099983215332 -5.2779998779296875,-10.970999717712402 C-6.171000003814697,-4.822000026702881 -7.702000141143799,2.6610000133514404 -8.987000465393066,10.013999938964844 C-8.987000465393066,10.013999938964844 -13.029000282287598,30.43000030517578 -13.029000282287598,42.41600036621094 C-13.029000282287598,60.59000015258789 -5.230999946594238,70.71900177001953 13.088000297546387,70.71900177001953 C28.158000946044922,70.71900177001953 41.308998107910156,60.090999603271484 49.5260009765625,47.178001403808594 C57.263999938964844,34.29399871826172 69.03800201416016,-9.168000221252441 69.03800201416016,-9.168000221252441 C75.79900360107422,-9.411999702453613 48.70600128173828,-8.425000190734863 54.95100021362305,-8.725000381469727z"></path></g></g><g transform="matrix(2.940000057220459,0,0,2.940000057220459,389.16998291015625,333.260009765625)" opacity="1" style="display: none;"><g opacity="1" transform="matrix(1,0,0,1,79.33499908447266,71.13200378417969)"><path id="woltLogoColor" fill="rgb(255,255,255)" fill-opacity="1" d="M0 0"></path></g><g opacity="1" transform="matrix(1,0,0,1,273.4599914550781,70.88999938964844)"><path id="woltLogoColor" fill="rgb(255,255,255)" fill-opacity="1" d=" M54.95100021362305,-8.725000381469727 C52.84299850463867,3.3410000801086426 51.481998443603516,11.402999877929688 50.60499954223633,20.518999099731445 C44.965999603271484,39.47100067138672 33.25600051879883,53.45899963378906 23.173999786376953,53.45899963378906 C16.99799919128418,53.45899963378906 13.3149995803833,49.792999267578125 13.3149995803833,38.672000885009766 C13.3149995803833,23.2810001373291 -13.029000282287598,30.43000030517578 -13.029000282287598,42.41600036621094 C-13.029000282287598,60.59000015258789 -5.230999946594238,70.71900177001953 13.088000297546387,70.71900177001953 C28.158000946044922,70.71900177001953 41.308998107910156,60.090999603271484 49.5260009765625,47.178001403808594 C62.1510009765625,23.507999420166016 67.46600341796875,1.0119999647140503 69.16799926757812,-9.218000411987305 C70.69999694824219,-21.14900016784668 57.058998107910156,-20.791000366210938 54.95100021362305,-8.725000381469727z"></path></g></g><g transform="matrix(2.940000057220459,0,0,2.940000057220459,389.16998291015625,333.260009765625)" opacity="1" style="display: block;"><g opacity="1" transform="matrix(1,0,0,1,79.33499908447266,71.13200378417969)"><path id="woltLogoColor" fill="rgb(255,255,255)" fill-opacity="1" d="M0 0"></path></g><g opacity="1" transform="matrix(1,0,0,1,273.4599914550781,70.88999938964844)"><path id="woltLogoColor" fill="rgb(255,255,255)" fill-opacity="1" d=" M72.53600311279297,-25.760000228881836 C72.53600311279297,-25.760000228881836 73.17900085449219,-40.61000061035156 74.51000213623047,-46.691001892089844 C75.16300201416016,-49.67599868774414 70.93900299072266,-54.50600051879883 68.05799865722656,-54.18299865722656 C65.6510009765625,-53.91400146484375 63.3120002746582,-52.474998474121094 62.76900100708008,-49.979000091552734 C61.41299819946289,-43.7400016784668 58.31800079345703,-26.618999481201172 58.31800079345703,-26.618999481201172 C58.31800079345703,-26.618999481201172 54.95100021362305,-8.725000381469727 54.95100021362305,-8.725000381469727 C54.95100021362305,-8.725000381469727 51.481998443603516,11.402999877929688 50.60499954223633,20.518999099731445 C44.965999603271484,39.47100067138672 33.25600051879883,53.45899963378906 23.173999786376953,53.45899963378906 C16.99799919128418,53.45899963378906 13.3149995803833,49.792999267578125 13.3149995803833,38.672000885009766 C13.3149995803833,23.2810001373291 -13.029000282287598,30.43000030517578 -13.029000282287598,42.41600036621094 C-13.029000282287598,60.59000015258789 -5.230999946594238,70.71900177001953 13.088000297546387,70.71900177001953 C28.158000946044922,70.71900177001953 41.308998107910156,60.090999603271484 49.5260009765625,47.178001403808594 C62.1510009765625,23.507999420166016 69.33799743652344,-7.85699987411499 69.33799743652344,-7.85699987411499 C69.33799743652344,-7.85699987411499 72.53600311279297,-25.760000228881836 72.53600311279297,-25.760000228881836z"></path></g></g></g><g clip-path="url(#__lottie_element_110)" transform="matrix(1,0,0,1,0,0)" opacity="1" style="display: block;"><g mask="url(#__lottie_element_111)"><g transform="matrix(2.940000057220459,0,0,2.940000057220459,389.16998291015625,333.260009765625)" opacity="1" style="display: block;"><g opacity="1" transform="matrix(1,0,0,1,79.33499908447266,71.13200378417969)"><path id="woltLogoColor" fill="rgb(255,255,255)" fill-opacity="1" d="M0 0"></path></g><g opacity="1" transform="matrix(1,0,0,1,273.4599914550781,70.88999938964844)"><path id="woltLogoColor" fill="rgb(255,255,255)" fill-opacity="1" d=" M13.843999862670898,-22.496000289916992 C21.118999481201172,-39.99700164794922 14.484999656677246,-70.45700073242188 9.706999778747559,-68.96800231933594 C5.439000129699707,-67.63899993896484 8.815999984741211,-38.99800109863281 8.303000450134277,-36.604000091552734 C5.8379998207092285,-25.09600067138672 4.203000068664551,-24.209999084472656 -5.2779998779296875,-10.970999717712402 C-11.557999610900879,-3.369999885559082 -18.768999099731445,1.9700000286102295 -26.573999404907227,3.2860000133514404 C-48.518001556396484,5.552000045776367 -51.749000549316406,-4.48199987411499 -43.5369987487793,-18.660999298095703 C-30.735000610351562,-40.763999938964844 -47.68199920654297,-33.05699920654297 -56.02899932861328,-18.575000762939453 C-58.57400131225586,-14.159000396728516 -59.2400016784668,-9.059000015258789 -59.38800048828125,-4.051000118255615 C-59.573001861572266,2.2100000381469727 -58.551998138427734,10.144000053405762 -50.375999450683594,16 C-41.51499938964844,22.347000122070312 -34.41600036621094,21.090999603271484 -27.739999771118164,19.790000915527344 C-20.57699966430664,18.339000701904297 -14.354000091552734,14.845999717712402 -8.987000465393066,10.013999938964844 C-8.987000465393066,10.013999938964844 8.687999725341797,-2.986999988555908 13.843999862670898,-22.496000289916992z"></path></g></g><g transform="matrix(2.940000057220459,0,0,2.940000057220459,389.16998291015625,333.260009765625)" opacity="1" style="display: block;"><g opacity="1" transform="matrix(1,0,0,1,79.33499908447266,71.13200378417969)"><path id="woltLogoColor" fill="rgb(255,255,255)" fill-opacity="1" d="M0 0"></path></g><g opacity="1" transform="matrix(1,0,0,1,273.4599914550781,70.88999938964844)"><path id="woltLogoColor" fill="rgb(255,255,255)" fill-opacity="1" d=" M22.006999969482422,-15.692999839782715 C29.281999588012695,-33.194000244140625 33.465999603271484,-52.654998779296875 33.465999603271484,-61.47600173950195 C33.465999603271484,-64.79299926757812 32.45500183105469,-68.50499725341797 28.479000091552734,-69.29499816894531 C21.305999755859375,-70.72000122070312 14.484999656677246,-70.45700073242188 9.706999778747559,-68.96800231933594 C5.439000129699707,-67.63899993896484 10.687000274658203,-60.25699996948242 10.173999786376953,-57.862998962402344 C7.709000110626221,-46.35499954223633 16.85099983215332,3.815999984741211 22.006999969482422,-15.692999839782715z"></path></g></g></g></g><g clip-path="url(#__lottie_element_90)" transform="matrix(1,0,0,1,0,0)" opacity="1" style="display: block;"><g transform="matrix(2.940000057220459,0,0,2.940000057220459,389.16998291015625,333.260009765625)" opacity="1" style="display: block;"><g opacity="1" transform="matrix(1,0,0,1,79.33499908447266,71.13200378417969)"><path id="woltLogoColor" fill="rgb(255,255,255)" fill-opacity="1" d="M0 0"></path></g><g opacity="1" transform="matrix(1,0,0,1,273.4599914550781,70.88999938964844)"><path id="woltLogoColor" fill="rgb(255,255,255)" fill-opacity="1" d=" M-75.15799713134766,56.04199981689453 C-82.8239974975586,56.04199981689453 -87.95500183105469,49.435001373291016 -87.95500183105469,36.321998596191406 C-87.95500183105469,11.166000366210938 -79.00299835205078,-15.89799976348877 -62.922000885009766,-15.89799976348877 C-61.112998962402344,-15.89799976348877 -59.50699996948242,-15.656000137329102 -58.0880012512207,-15.092000007629395 C-53.025001525878906,-13.326000213623047 -49.624000549316406,4.191999912261963 -51.27399826049805,15.522000312805176 C-54.7599983215332,37.61000061035156 -64.52799987792969,56.04199981689453 -75.15799713134766,56.04199981689453z M-26.573999404907227,3.2860000133514404 C-27.78700065612793,-20.392000198364258 -41.56399917602539,-30.565000534057617 -60.54399871826172,-30.565000534057617 C-93.8759994506836,-30.565000534057617 -115.12100219726562,-0.8700000047683716 -115.12100219726562,32.459999084472656 C-115.12100219726562,59.459999084472656 -100.38899993896484,70.71900177001953 -78.94599914550781,70.71900177001953 C-53.624000549316406,70.71900177001953 -34.779998779296875,52.74700164794922 -27.739999771118164,19.790000915527344 C-26.749000549316406,13.970000267028809 -26.57900047302246,9.803999900817871 -26.573999404907227,3.2860000133514404z"></path></g></g><g transform="matrix(1,0,0,1,960,540)" opacity="1" style="display: none;"><g opacity="1" transform="matrix(1,0,0,1,0,0)"><path id="woltLogoColor" fill="rgb(255,255,255)" fill-opacity="1" d=" M88.5,-83 C67.25,-89.5 33.25,-70 66,-41 C98.75,-12 79.75,61.25 79.75,61.25 C79.75,61.25 75,82 71,95 C67,108 49.25,168.25 11,165.5 C-5.164999961853027,164.33799743652344 -42.79499816894531,205.56199645996094 -11.5,209.5 C26.25,214.25 88.75,203.75 128,128.5 C167.25,53.25 154.75,-20.75 139.5,-45 C124.25,-69.25 109.75,-76.5 88.5,-83z"></path></g></g><g transform="matrix(1,0,0,1,960,540)" opacity="1" style="display: none;"><g opacity="1" transform="matrix(1,0,0,1,0,0)"><path id="woltLogoColor" fill="rgb(255,255,255)" fill-opacity="1" d=" M88.5,-83 C67.25,-89.5 33.25,-70 66,-41 C85.48699951171875,-23.743999481201172 86.6520004272461,9.178000450134277 84.39900207519531,33.013999938964844 C82.86599731445312,49.23699951171875 154.11399841308594,36.44200134277344 154.18499755859375,24.75 C154.3780059814453,-7.185999870300293 147.2989959716797,-32.5989990234375 139.5,-45 C124.25,-69.25 109.75,-76.5 88.5,-83z"></path></g></g></g><g clip-path="url(#__lottie_element_80)" transform="matrix(1,0,0,1,0,0)" opacity="1" style="display: block;"><g transform="matrix(2.940000057220459,0,0,2.940000057220459,389.16998291015625,333.260009765625)" opacity="1" style="display: block;"><g opacity="1" transform="matrix(1,0,0,1,79.33499908447266,71.13200378417969)"><path id="woltLogoColor" fill="rgb(255,255,255)" fill-opacity="1" d=" M66.65399932861328,-70.47699737548828 C62.22200012207031,-70.47699737548828 58.29100036621094,-70.25599670410156 56.347999572753906,-70.05500030517578 C52.47100067138672,-69.65399932861328 51.15800094604492,-65.97100067138672 51.439998626708984,-62.34600067138672 C55.520999908447266,-9.859000205993652 43.96799850463867,51.222999572753906 30.81800079345703,51.222999572753906 C21.027000427246094,51.222999572753906 18.299999237060547,22.673999786376953 18.299999237060547,-2.7209999561309814 C18.299999237060547,-17.729999542236328 19.156999588012695,-32.185001373291016 19.516000747680664,-44.959999084472656 C19.648000717163086,-49.69900131225586 17.926000595092773,-50.590999603271484 14.501999855041504,-51.00699996948242 C9.312999725341797,-51.637001037597656 5.5980000495910645,-51.63199996948242 0.44600000977516174,-50.49100112915039 C-3.490000009536743,-49.61899948120117 -4.415999889373779,-46.388999938964844 -8.555000305175781,-36.54800033569336 C-29.173999786376953,12.47599983215332 -49.064998626708984,51.85200119018555 -49.064998626708984,51.85200119018555 C-54.32400131225586,12.383000373840332 -47.57500076293945,-25.900999069213867 -41.82500076293945,-53.845001220703125 C-41.03099822998047,-57.69300079345703 -42.86600112915039,-59.965999603271484 -46.027000427246094,-59.9109992980957 C-51.97999954223633,-59.80699920654297 -61.119998931884766,-59.61600112915039 -65.24400329589844,-56.91600036621094 C-69.11100006103516,-54.3849983215332 -70.5459976196289,-51.68299865722656 -71.66200256347656,-46.09000015258789 C-78.04499816894531,-14.088000297546387 -82.1989974975586,26.055999755859375 -75.77799987792969,57.097999572753906 C-74.38999938964844,63.80699920654297 -72.83200073242188,65.39199829101562 -69.9990005493164,67.14700317382812 C-67.16600036621094,68.90299987792969 -55.00400161743164,70.47699737548828 -50.28799819946289,70.47699737548828 C-44.93299865722656,70.47699737548828 -40.02899932861328,69.03500366210938 -35.95000076293945,62.04199981689453 C-27.31399917602539,47.236000061035156 -20.39699935913086,32.448001861572266 -7.328999996185303,3.9649999141693115 C-5.982999801635742,41.07699966430664 -0.7459999918937683,70.20800018310547 25.329999923706055,70.20800018310547 C59.89099884033203,70.20800018310547 82.1989974975586,-16.139999389648438 82.1989974975586,-57.6879997253418 C82.1989974975586,-68.67900085449219 76.75,-70.47699737548828 66.65399932861328,-70.47699737548828z"></path></g></g><g transform="matrix(2.940000057220459,0,0,2.940000057220459,389.16998291015625,333.260009765625)" opacity="1" style="display: none;"><g opacity="1" transform="matrix(1,0,0,1,79.33499908447266,71.13200378417969)"><path id="woltLogoColor" fill="rgb(255,255,255)" fill-opacity="1" d=" M49.64899826049805,3.069999933242798 C47.395999908447266,30.79400062561035 38.45399856567383,51.222999572753906 30.81800079345703,51.222999572753906 C21.027000427246094,51.222999572753906 18.299999237060547,22.673999786376953 18.299999237060547,-2.7209999561309814 C18.299999237060547,-17.729999542236328 19.156999588012695,-32.185001373291016 19.516000747680664,-44.959999084472656 C19.648000717163086,-49.69900131225586 17.926000595092773,-50.590999603271484 14.501999855041504,-51.00699996948242 C9.312999725341797,-51.637001037597656 5.5980000495910645,-51.63199996948242 0.44600000977516174,-50.49100112915039 C-3.490000009536743,-49.61899948120117 -4.415999889373779,-46.388999938964844 -8.555000305175781,-36.54800033569336 C-29.173999786376953,12.47599983215332 -49.064998626708984,51.85200119018555 -49.064998626708984,51.85200119018555 C-54.32400131225586,12.383000373840332 -47.57500076293945,-25.900999069213867 -41.82500076293945,-53.845001220703125 C-41.03099822998047,-57.69300079345703 -42.86600112915039,-59.965999603271484 -46.027000427246094,-59.9109992980957 C-51.97999954223633,-59.80699920654297 -61.119998931884766,-59.61600112915039 -65.24400329589844,-56.91600036621094 C-69.11100006103516,-54.3849983215332 -70.5459976196289,-51.68299865722656 -71.66200256347656,-46.09000015258789 C-78.04499816894531,-14.088000297546387 -82.1989974975586,26.055999755859375 -75.77799987792969,57.097999572753906 C-74.38999938964844,63.80699920654297 -72.83200073242188,65.39199829101562 -69.9990005493164,67.14700317382812 C-67.16600036621094,68.90299987792969 -55.00400161743164,70.47699737548828 -50.28799819946289,70.47699737548828 C-44.93299865722656,70.47699737548828 -40.02899932861328,69.03500366210938 -35.95000076293945,62.04199981689453 C-27.31399917602539,47.236000061035156 -20.39699935913086,32.448001861572266 -7.328999996185303,3.9649999141693115 C-5.982999801635742,41.07699966430664 -0.7459999918937683,70.20800018310547 25.329999923706055,70.20800018310547 C46.292999267578125,70.20800018310547 62.582000732421875,45.08399963378906 73.12300109863281,16.52199935913086 C75.87999725341797,9.052000045776367 50.19900131225586,-3.703000068664551 49.64899826049805,3.069999933242798z"></path></g></g><g transform="matrix(2.940000057220459,0,0,2.940000057220459,389.16998291015625,333.260009765625)" opacity="1" style="display: none;"><g opacity="1" transform="matrix(1,0,0,1,79.33499908447266,71.13200378417969)"><path id="woltLogoColor" fill="rgb(255,255,255)" fill-opacity="1" d=" M14.67199993133545,-56.27899932861328 C9.482999801635742,-56.909000396728516 3.940999984741211,-54.38399887084961 0.44600000977516174,-50.49100112915039 C-2.246999979019165,-47.49100112915039 -4.415999889373779,-46.388999938964844 -8.555000305175781,-36.54800033569336 C-29.173999786376953,12.47599983215332 -49.064998626708984,51.85200119018555 -49.064998626708984,51.85200119018555 C-54.32400131225586,12.383000373840332 -47.57500076293945,-25.900999069213867 -41.82500076293945,-53.845001220703125 C-41.03099822998047,-57.69300079345703 -42.86600112915039,-59.965999603271484 -46.027000427246094,-59.9109992980957 C-51.97999954223633,-59.80699920654297 -61.119998931884766,-59.61600112915039 -65.24400329589844,-56.91600036621094 C-69.11100006103516,-54.3849983215332 -70.5459976196289,-51.68299865722656 -71.66200256347656,-46.09000015258789 C-78.04499816894531,-14.088000297546387 -82.1989974975586,26.055999755859375 -75.77799987792969,57.097999572753906 C-74.38999938964844,63.80699920654297 -72.83200073242188,65.39199829101562 -69.9990005493164,67.14700317382812 C-67.16600036621094,68.90299987792969 -55.00400161743164,70.47699737548828 -50.28799819946289,70.47699737548828 C-44.93299865722656,70.47699737548828 -40.02899932861328,69.03500366210938 -35.95000076293945,62.04199981689453 C-27.31399917602539,47.236000061035156 -1.6890000104904175,-16.701000213623047 11.378999710083008,-45.183998107910156 C16.016000747680664,-44.17900085449219 18.09600067138672,-55.862998962402344 14.67199993133545,-56.27899932861328z"></path></g></g><g transform="matrix(2.940000057220459,0,0,2.940000057220459,389.16998291015625,333.260009765625)" opacity="1" style="display: none;"><g opacity="1" transform="matrix(1,0,0,1,79.33499908447266,71.13200378417969)"><path id="woltLogoColor" fill="rgb(255,255,255)" fill-opacity="1" d=" M-49.064998626708984,51.85200119018555 C-54.32400131225586,12.383000373840332 -47.57500076293945,-25.900999069213867 -41.82500076293945,-53.845001220703125 C-41.03099822998047,-57.69300079345703 -42.86600112915039,-59.965999603271484 -46.027000427246094,-59.9109992980957 C-51.97999954223633,-59.80699920654297 -61.119998931884766,-59.61600112915039 -65.24400329589844,-56.91600036621094 C-69.11100006103516,-54.3849983215332 -70.5459976196289,-51.68299865722656 -71.66200256347656,-46.09000015258789 C-78.04499816894531,-14.088000297546387 -82.1989974975586,26.055999755859375 -75.77799987792969,57.097999572753906 C-74.38999938964844,63.80699920654297 -72.83200073242188,65.39199829101562 -69.9990005493164,67.14700317382812 C-67.16600036621094,68.90299987792969 -55.00400161743164,70.47699737548828 -50.28799819946289,70.47699737548828 C-44.93299865722656,70.47699737548828 -40.02899932861328,69.03500366210938 -35.95000076293945,62.04199981689453 C-32.507999420166016,56.14099884033203 -49.064998626708984,51.85200119018555 -49.064998626708984,51.85200119018555z"></path></g></g></g></g><g clip-path="url(#__lottie_element_9)" transform="matrix(1,0,0,1,0,0)" opacity="1" style="display: block;"><g clip-path="url(#__lottie_element_13)" transform="matrix(1,0,0,1,0,0)" opacity="1" style="display: block;"><g transform="matrix(2.940000057220459,0,0,2.940000057220459,389.16998291015625,333.260009765625)" opacity="1" style="display: block;"><g opacity="1" transform="matrix(1,0,0,1,79.33499908447266,71.13200378417969)"><path id="woltLogoColor" fill="rgb(255,255,255)" fill-opacity="1" d="M0 0"></path></g><g opacity="1" transform="matrix(1,0,0,1,273.4599914550781,70.88999938964844)"><path id="woltLogoColor" fill="rgb(255,255,255)" fill-opacity="1" d=" M102.697998046875,-10.487000465393066 C108.95899963378906,-10.630999565124512 113.39199829101562,-12.541000366210938 114.47699737548828,-18.48900032043457 C115.12100219726562,-22.030000686645508 113.0469970703125,-24.292999267578125 109.02100372314453,-24.474000930786133 C109.02100372314453,-24.474000930786133 97.34300231933594,-25.09000015258789 83.8949966430664,-25.68400001525879 C83.8949966430664,-25.68400001525879 63.89699935913086,-26.5049991607666 58.31800079345703,-26.618999481201172 C53.327999114990234,-26.738000869750977 48.48500061035156,-26.77899932861328 45.11600112915039,-26.7189998626709 C41.97700119018555,-26.663000106811523 40.5,-25.058000564575195 39.85599899291992,-22.47100067138672 C39.2130012512207,-19.884000778198242 38.6870002746582,-16.209999084472656 38.474998474121094,-12.392000198364258 C38.31399917602539,-9.494999885559082 41.46500015258789,-8.125 44.7140007019043,-8.244000434875488 C44.7140007019043,-8.244000434875488 48.70600128173828,-8.425000190734863 54.95100021362305,-8.725000381469727 C62.027000427246094,-8.98900032043457 81.28299713134766,-9.847999572753906 81.28299713134766,-9.847999572753906 C88.04399871826172,-10.092000007629395 95.55599975585938,-10.322999954223633 102.697998046875,-10.487000465393066z"></path></g></g><g transform="matrix(2.940000057220459,0,0,2.940000057220459,389.16998291015625,333.260009765625)" opacity="1" style="display: none;"><g opacity="1" transform="matrix(1,0,0,1,79.33499908447266,71.13200378417969)"><path id="woltLogoColor" fill="rgb(255,255,255)" fill-opacity="1" d="M0 0"></path></g><g opacity="1" transform="matrix(1,0,0,1,273.4599914550781,70.88999938964844)"><path id="woltLogoColor" fill="rgb(255,255,255)" fill-opacity="1" d=" M-184.0570068359375,-23.81800079345703 C-184.0570068359375,-23.81800079345703 -214.08799743652344,-24.6200008392334 -222.46499633789062,-24.753000259399414 C-229.95799255371094,-24.871999740600586 -244.1009979248047,-32.18299865722656 -245.66400146484375,-37.99599838256836 C-249.11300659179688,-50.82500076293945 -258.97698974609375,-47.25400161743164 -255.6020050048828,-29.545000076293945 C-255.05799865722656,-26.68899917602539 -254.677001953125,-21.913999557495117 -247.91900634765625,-16.856000900268555 C-247.91900634765625,-16.856000900268555 -236.4429931640625,-11.11400032043457 -227.52099609375,-10.345000267028809 C-216.88499450683594,-9.49899959564209 -188.14599609375,-11.383000373840332 -188.14599609375,-11.383000373840332 C-177.9929962158203,-11.626999855041504 -163.86199951171875,-23.224000930786133 -184.0570068359375,-23.81800079345703z"></path></g></g><g transform="matrix(1,0,0,1,960,547.8701171875)" opacity="1" style="display: none;"><g opacity="1" transform="matrix(1,0,0,1,-501.25,-192)"><path id="woltLogoColor" fill="rgb(255,255,255)" fill-opacity="1" d=" M0,-38.5 C21.248149871826172,-38.5 38.5,-21.248149871826172 38.5,0 C38.5,21.248149871826172 21.248149871826172,38.5 0,38.5 C-21.248149871826172,38.5 -38.5,21.248149871826172 -38.5,0 C-38.5,-21.248149871826172 -21.248149871826172,-38.5 0,-38.5z"></path><path stroke-linecap="butt" stroke-linejoin="miter" fill-opacity="0" stroke-miterlimit="4" stroke="rgb(255,255,255)" stroke-opacity="1" stroke-width="0.5" d=" M0,-38.5 C21.248149871826172,-38.5 38.5,-21.248149871826172 38.5,0 C38.5,21.248149871826172 21.248149871826172,38.5 0,38.5 C-21.248149871826172,38.5 -38.5,21.248149871826172 -38.5,0 C-38.5,-21.248149871826172 -21.248149871826172,-38.5 0,-38.5z"></path></g></g></g><g clip-path="url(#__lottie_element_17)" transform="matrix(1,0,0,1,0,0)" opacity="1" style="display: block;"><g transform="matrix(2.940000057220459,0,0,2.940000057220459,389.16998291015625,333.260009765625)" opacity="1" style="display: block;"><g opacity="1" transform="matrix(1,0,0,1,79.33499908447266,71.13200378417969)"><path id="woltLogoColor" fill="rgb(255,255,255)" fill-opacity="1" d="M0 0"></path></g><g opacity="1" transform="matrix(1,0,0,1,273.4599914550781,70.88999938964844)"><path id="woltLogoColor" fill="rgb(255,255,255)" fill-opacity="1" d=" M83.8949966430664,-25.68400001525879 C83.8949966430664,-25.68400001525879 86.61499786376953,-40.608001708984375 87.94599914550781,-46.68899917602539 C88.5989990234375,-49.67399978637695 87.02200317382812,-52.62699890136719 83.26000213623047,-53.540000915527344 C79.52300262451172,-54.44599914550781 70.93900299072266,-54.50600051879883 68.05799865722656,-54.18299865722656 C65.6510009765625,-53.91400146484375 63.3120002746582,-52.474998474121094 62.76900100708008,-49.979000091552734 C61.41299819946289,-43.7400016784668 60,-36.23500061035156 58.31800079345703,-26.618999481201172 C57.433998107910156,-22.16900062561035 55.73400115966797,-14.175999641418457 54.95100021362305,-8.725000381469727 C53.792999267578125,-3.259000062942505 51.57899856567383,11.413000106811523 50.60499954223633,20.518999099731445 C49.441001892089844,31.402999877929688 48.76100158691406,37.8650016784668 49.5260009765625,47.178001403808594 C51.731998443603516,64.04900360107422 60.53799819946289,70.71900177001953 74.86299896240234,70.71900177001953 C88.01300048828125,70.71900177001953 100.66899871826172,62.38199996948242 109.62799835205078,47.29199981689453 C111.41600036621094,44.28200149536133 112.72100067138672,41.650001525878906 111.58599853515625,40.34400177001953 C108.98300170898438,37.35200119018555 104.02100372314453,35.79899978637695 102.66400146484375,38.28200149536133 C96.75299835205078,49.099998474121094 90.40399932861328,53.45800018310547 83.49099731445312,53.45800018310547 C78.02400207519531,53.45800018310547 73.5989990234375,50.207000732421875 73.5989990234375,40.71799850463867 C73.5989990234375,27.06399917602539 81.28299713134766,-9.847999572753906 81.28299713134766,-9.847999572753906 C82.26399993896484,-14.005999565124512 83.28399658203125,-19.788000106811523 83.8949966430664,-25.68400001525879z"></path></g></g><g transform="matrix(2.940000057220459,0,0,2.940000057220459,389.16998291015625,333.260009765625)" opacity="1" style="display: none;"><g opacity="1" transform="matrix(1,0,0,1,79.33499908447266,71.13200378417969)"><path id="woltLogoColor" fill="rgb(255,255,255)" fill-opacity="1" d="M0 0"></path></g><g opacity="1" transform="matrix(1,0,0,1,273.4599914550781,70.88999938964844)"><path id="woltLogoColor" fill="rgb(255,255,255)" fill-opacity="1" d=" M83.8949966430664,-25.68400001525879 C83.8949966430664,-25.68400001525879 86.61499786376953,-40.608001708984375 87.94599914550781,-46.68899917602539 C88.5989990234375,-49.67399978637695 87.02200317382812,-52.62699890136719 83.26000213623047,-53.540000915527344 C79.52300262451172,-54.44599914550781 70.93900299072266,-54.50600051879883 68.05799865722656,-54.18299865722656 C65.6510009765625,-53.91400146484375 63.3120002746582,-52.474998474121094 62.76900100708008,-49.979000091552734 C61.41299819946289,-43.7400016784668 60,-36.23500061035156 58.31800079345703,-26.618999481201172 C57.433998107910156,-22.16900062561035 55.73400115966797,-14.175999641418457 54.95100021362305,-8.725000381469727 C53.792999267578125,-3.259000062942505 51.57899856567383,11.413000106811523 50.60499954223633,20.518999099731445 C49.441001892089844,31.402999877929688 48.76100158691406,37.8650016784668 49.5260009765625,47.178001403808594 C51.731998443603516,64.04900360107422 60.69200134277344,72.81600189208984 74.86299896240234,70.71900177001953 C111.85600280761719,65.24600219726562 97.73999786376953,51.130001068115234 83.49099731445312,53.45800018310547 C78.09600067138672,54.34000015258789 73.5989990234375,50.207000732421875 73.5989990234375,40.71799850463867 C73.5989990234375,27.06399917602539 81.28299713134766,-9.847999572753906 81.28299713134766,-9.847999572753906 C82.26399993896484,-14.005999565124512 83.28399658203125,-19.788000106811523 83.8949966430664,-25.68400001525879z"></path></g></g></g><g clip-path="url(#__lottie_element_21)" transform="matrix(1,0,0,1,0,0)" opacity="1" style="display: block;"><g transform="matrix(2.940000057220459,0,0,2.940000057220459,389.16998291015625,333.260009765625)" opacity="1" style="display: block;"><g opacity="1" transform="matrix(1,0,0,1,79.33499908447266,71.13200378417969)"><path id="woltLogoColor" fill="rgb(255,255,255)" fill-opacity="1" d="M0 0"></path></g><g opacity="1" transform="matrix(1,0,0,1,273.4599914550781,70.88999938964844)"><path id="woltLogoColor" fill="rgb(255,255,255)" fill-opacity="1" d=" M54.95100021362305,-8.725000381469727 C53.792999267578125,-3.259000062942505 51.481998443603516,11.402999877929688 50.60499954223633,20.518999099731445 C44.965999603271484,39.47100067138672 33.25600051879883,53.45899963378906 23.173999786376953,53.45899963378906 C16.99799919128418,53.45899963378906 13.3149995803833,49.792999267578125 13.3149995803833,38.672000885009766 C13.3149995803833,23.2810001373291 16.85099983215332,3.815999984741211 22.006999969482422,-15.692999839782715 C25.461000442504883,-33.5629997253418 29.202999114990234,-51.08000183105469 30.065000534057617,-60.625 C30.363000869750977,-63.92900085449219 32.45500183105469,-68.50499725341797 28.479000091552734,-69.29499816894531 C21.305999755859375,-70.72000122070312 14.484999656677246,-70.45700073242188 9.706999778747559,-68.96800231933594 C5.439000129699707,-67.63899993896484 4.564000129699707,-63.14799880981445 4.051000118255615,-60.75400161743164 C1.5859999656677246,-49.24599838256836 -2.4519999027252197,-28.85099983215332 -5.2779998779296875,-10.970999717712402 C-6.171000003814697,-4.822000026702881 -7.702000141143799,2.6610000133514404 -8.987000465393066,10.013999938964844 C-8.987000465393066,10.013999938964844 -13.029000282287598,30.43000030517578 -13.029000282287598,42.41600036621094 C-13.029000282287598,60.59000015258789 -5.230999946594238,70.71900177001953 13.088000297546387,70.71900177001953 C28.158000946044922,70.71900177001953 41.308998107910156,60.090999603271484 49.5260009765625,47.178001403808594 C57.263999938964844,34.29399871826172 69.03800201416016,-9.168000221252441 69.03800201416016,-9.168000221252441 C75.79900360107422,-9.411999702453613 48.70600128173828,-8.425000190734863 54.95100021362305,-8.725000381469727z"></path></g></g><g transform="matrix(2.940000057220459,0,0,2.940000057220459,389.16998291015625,333.260009765625)" opacity="1" style="display: block;"><g opacity="1" transform="matrix(1,0,0,1,79.33499908447266,71.13200378417969)"><path id="woltLogoColor" fill="rgb(255,255,255)" fill-opacity="1" d="M0 0"></path></g><g opacity="1" transform="matrix(1,0,0,1,273.4599914550781,70.88999938964844)"><path id="woltLogoColor" fill="rgb(255,255,255)" fill-opacity="1" d=" M72.53600311279297,-25.760000228881836 C72.53600311279297,-25.760000228881836 73.17900085449219,-40.61000061035156 74.51000213623047,-46.691001892089844 C75.16300201416016,-49.67599868774414 70.93900299072266,-54.50600051879883 68.05799865722656,-54.18299865722656 C65.6510009765625,-53.91400146484375 63.3120002746582,-52.474998474121094 62.76900100708008,-49.979000091552734 C61.41299819946289,-43.7400016784668 58.31800079345703,-26.618999481201172 58.31800079345703,-26.618999481201172 C58.31800079345703,-26.618999481201172 54.95100021362305,-8.725000381469727 54.95100021362305,-8.725000381469727 C54.95100021362305,-8.725000381469727 51.481998443603516,11.402999877929688 50.60499954223633,20.518999099731445 C44.965999603271484,39.47100067138672 33.25600051879883,53.45899963378906 23.173999786376953,53.45899963378906 C16.99799919128418,53.45899963378906 13.3149995803833,49.792999267578125 13.3149995803833,38.672000885009766 C13.3149995803833,23.2810001373291 -13.029000282287598,30.43000030517578 -13.029000282287598,42.41600036621094 C-13.029000282287598,60.59000015258789 -5.230999946594238,70.71900177001953 13.088000297546387,70.71900177001953 C28.158000946044922,70.71900177001953 41.308998107910156,60.090999603271484 49.5260009765625,47.178001403808594 C62.1510009765625,23.507999420166016 69.33799743652344,-7.85699987411499 69.33799743652344,-7.85699987411499 C69.33799743652344,-7.85699987411499 72.53600311279297,-25.760000228881836 72.53600311279297,-25.760000228881836z"></path></g></g></g><g clip-path="url(#__lottie_element_25)" transform="matrix(1,0,0,1,0,0)" opacity="1" style="display: block;"><g mask="url(#__lottie_element_26)"><g transform="matrix(2.940000057220459,0,0,2.940000057220459,389.16998291015625,333.260009765625)" opacity="1" style="display: block;"><g opacity="1" transform="matrix(1,0,0,1,79.33499908447266,71.13200378417969)"><path id="woltLogoColor" fill="rgb(255,255,255)" fill-opacity="1" d="M0 0"></path></g><g opacity="1" transform="matrix(1,0,0,1,273.4599914550781,70.88999938964844)"><path id="woltLogoColor" fill="rgb(255,255,255)" fill-opacity="1" d=" M13.843999862670898,-22.496000289916992 C21.118999481201172,-39.99700164794922 14.484999656677246,-70.45700073242188 9.706999778747559,-68.96800231933594 C5.439000129699707,-67.63899993896484 8.815999984741211,-38.99800109863281 8.303000450134277,-36.604000091552734 C5.8379998207092285,-25.09600067138672 4.203000068664551,-24.209999084472656 -5.2779998779296875,-10.970999717712402 C-11.557999610900879,-3.369999885559082 -18.768999099731445,1.9700000286102295 -26.573999404907227,3.2860000133514404 C-48.518001556396484,5.552000045776367 -51.749000549316406,-4.48199987411499 -43.5369987487793,-18.660999298095703 C-30.735000610351562,-40.763999938964844 -47.68199920654297,-33.05699920654297 -56.02899932861328,-18.575000762939453 C-58.57400131225586,-14.159000396728516 -59.2400016784668,-9.059000015258789 -59.38800048828125,-4.051000118255615 C-59.573001861572266,2.2100000381469727 -58.551998138427734,10.144000053405762 -50.375999450683594,16 C-41.51499938964844,22.347000122070312 -34.41600036621094,21.090999603271484 -27.739999771118164,19.790000915527344 C-20.57699966430664,18.339000701904297 -14.354000091552734,14.845999717712402 -8.987000465393066,10.013999938964844 C-8.987000465393066,10.013999938964844 8.687999725341797,-2.986999988555908 13.843999862670898,-22.496000289916992z"></path></g></g><g transform="matrix(2.940000057220459,0,0,2.940000057220459,389.16998291015625,333.260009765625)" opacity="1" style="display: block;"><g opacity="1" transform="matrix(1,0,0,1,79.33499908447266,71.13200378417969)"><path id="woltLogoColor" fill="rgb(255,255,255)" fill-opacity="1" d="M0 0"></path></g><g opacity="1" transform="matrix(1,0,0,1,273.4599914550781,70.88999938964844)"><path id="woltLogoColor" fill="rgb(255,255,255)" fill-opacity="1" d=" M22.006999969482422,-15.692999839782715 C29.281999588012695,-33.194000244140625 33.465999603271484,-52.654998779296875 33.465999603271484,-61.47600173950195 C33.465999603271484,-64.79299926757812 32.45500183105469,-68.50499725341797 28.479000091552734,-69.29499816894531 C21.305999755859375,-70.72000122070312 14.484999656677246,-70.45700073242188 9.706999778747559,-68.96800231933594 C5.439000129699707,-67.63899993896484 10.687000274658203,-60.25699996948242 10.173999786376953,-57.862998962402344 C7.709000110626221,-46.35499954223633 16.85099983215332,3.815999984741211 22.006999969482422,-15.692999839782715z"></path></g></g></g></g><g clip-path="url(#__lottie_element_29)" transform="matrix(1,0,0,1,0,0)" opacity="1" style="display: block;"><g transform="matrix(2.940000057220459,0,0,2.940000057220459,389.16998291015625,333.260009765625)" opacity="1" style="display: block;"><g opacity="1" transform="matrix(1,0,0,1,79.33499908447266,71.13200378417969)"><path id="woltLogoColor" fill="rgb(255,255,255)" fill-opacity="1" d="M0 0"></path></g><g opacity="1" transform="matrix(1,0,0,1,273.4599914550781,70.88999938964844)"><path id="woltLogoColor" fill="rgb(255,255,255)" fill-opacity="1" d=" M-75.15799713134766,56.04199981689453 C-82.8239974975586,56.04199981689453 -87.95500183105469,49.435001373291016 -87.95500183105469,36.321998596191406 C-87.95500183105469,11.166000366210938 -79.00299835205078,-15.89799976348877 -62.922000885009766,-15.89799976348877 C-61.112998962402344,-15.89799976348877 -59.50699996948242,-15.656000137329102 -58.0880012512207,-15.092000007629395 C-53.025001525878906,-13.326000213623047 -49.624000549316406,4.191999912261963 -51.27399826049805,15.522000312805176 C-54.7599983215332,37.61000061035156 -64.52799987792969,56.04199981689453 -75.15799713134766,56.04199981689453z M-26.573999404907227,3.2860000133514404 C-27.78700065612793,-20.392000198364258 -41.56399917602539,-30.565000534057617 -60.54399871826172,-30.565000534057617 C-93.8759994506836,-30.565000534057617 -115.12100219726562,-0.8700000047683716 -115.12100219726562,32.459999084472656 C-115.12100219726562,59.459999084472656 -100.38899993896484,70.71900177001953 -78.94599914550781,70.71900177001953 C-53.624000549316406,70.71900177001953 -34.779998779296875,52.74700164794922 -27.739999771118164,19.790000915527344 C-26.749000549316406,13.970000267028809 -26.57900047302246,9.803999900817871 -26.573999404907227,3.2860000133514404z"></path></g></g></g><g clip-path="url(#__lottie_element_33)" transform="matrix(1,0,0,1,0,0)" opacity="1" style="display: block;"><g transform="matrix(2.940000057220459,0,0,2.940000057220459,389.16998291015625,333.260009765625)" opacity="1" style="display: block;"><g opacity="1" transform="matrix(1,0,0,1,79.33499908447266,71.13200378417969)"><path id="woltLogoColor" fill="rgb(255,255,255)" fill-opacity="1" d=" M66.65399932861328,-70.47699737548828 C62.22200012207031,-70.47699737548828 58.29100036621094,-70.25599670410156 56.347999572753906,-70.05500030517578 C52.47100067138672,-69.65399932861328 51.15800094604492,-65.97100067138672 51.439998626708984,-62.34600067138672 C55.520999908447266,-9.859000205993652 43.96799850463867,51.222999572753906 30.81800079345703,51.222999572753906 C21.027000427246094,51.222999572753906 18.299999237060547,22.673999786376953 18.299999237060547,-2.7209999561309814 C18.299999237060547,-17.729999542236328 19.156999588012695,-32.185001373291016 19.516000747680664,-44.959999084472656 C19.648000717163086,-49.69900131225586 17.926000595092773,-50.590999603271484 14.501999855041504,-51.00699996948242 C9.312999725341797,-51.637001037597656 5.5980000495910645,-51.63199996948242 0.44600000977516174,-50.49100112915039 C-3.490000009536743,-49.61899948120117 -4.415999889373779,-46.388999938964844 -8.555000305175781,-36.54800033569336 C-29.173999786376953,12.47599983215332 -49.064998626708984,51.85200119018555 -49.064998626708984,51.85200119018555 C-54.32400131225586,12.383000373840332 -47.57500076293945,-25.900999069213867 -41.82500076293945,-53.845001220703125 C-41.03099822998047,-57.69300079345703 -42.86600112915039,-59.965999603271484 -46.027000427246094,-59.9109992980957 C-51.97999954223633,-59.80699920654297 -61.119998931884766,-59.61600112915039 -65.24400329589844,-56.91600036621094 C-69.11100006103516,-54.3849983215332 -70.5459976196289,-51.68299865722656 -71.66200256347656,-46.09000015258789 C-78.04499816894531,-14.088000297546387 -82.1989974975586,26.055999755859375 -75.77799987792969,57.097999572753906 C-74.38999938964844,63.80699920654297 -72.83200073242188,65.39199829101562 -69.9990005493164,67.14700317382812 C-67.16600036621094,68.90299987792969 -55.00400161743164,70.47699737548828 -50.28799819946289,70.47699737548828 C-44.93299865722656,70.47699737548828 -40.02899932861328,69.03500366210938 -35.95000076293945,62.04199981689453 C-27.31399917602539,47.236000061035156 -20.39699935913086,32.448001861572266 -7.328999996185303,3.9649999141693115 C-5.982999801635742,41.07699966430664 -0.7459999918937683,70.20800018310547 25.329999923706055,70.20800018310547 C59.89099884033203,70.20800018310547 82.1989974975586,-16.139999389648438 82.1989974975586,-57.6879997253418 C82.1989974975586,-68.67900085449219 76.75,-70.47699737548828 66.65399932861328,-70.47699737548828z"></path></g></g><g transform="matrix(2.940000057220459,0,0,2.940000057220459,389.16998291015625,333.260009765625)" opacity="1" style="display: none;"><g opacity="1" transform="matrix(1,0,0,1,79.33499908447266,71.13200378417969)"><path id="woltLogoColor" fill="rgb(255,255,255)" fill-opacity="1" d=" M66.65399932861328,-70.47699737548828 C62.22200012207031,-70.47699737548828 58.29100036621094,-70.25599670410156 56.347999572753906,-70.05500030517578 C52.47100067138672,-69.65399932861328 51.15800094604492,-65.97100067138672 51.439998626708984,-62.34600067138672 C55.520999908447266,-9.859000205993652 43.96799850463867,51.222999572753906 30.81800079345703,51.222999572753906 C21.027000427246094,51.222999572753906 18.299999237060547,22.673999786376953 18.299999237060547,-2.7209999561309814 C18.299999237060547,-17.729999542236328 19.156999588012695,-32.185001373291016 19.516000747680664,-44.959999084472656 C19.648000717163086,-49.69900131225586 17.926000595092773,-50.590999603271484 14.501999855041504,-51.00699996948242 C9.312999725341797,-51.637001037597656 5.5980000495910645,-51.63199996948242 0.44600000977516174,-50.49100112915039 C-3.490000009536743,-49.61899948120117 -4.415999889373779,-46.388999938964844 -8.555000305175781,-36.54800033569336 C-29.173999786376953,12.47599983215332 -49.064998626708984,51.85200119018555 -49.064998626708984,51.85200119018555 C-50.37799835205078,41.999000549316406 -77.64900207519531,48.053001403808594 -75.77799987792969,57.097999572753906 C-74.38999938964844,63.80699920654297 -72.83200073242188,65.39199829101562 -69.9990005493164,67.14700317382812 C-67.16600036621094,68.90299987792969 -55.00400161743164,70.47699737548828 -50.28799819946289,70.47699737548828 C-44.93299865722656,70.47699737548828 -40.02899932861328,69.03500366210938 -35.95000076293945,62.04199981689453 C-27.31399917602539,47.236000061035156 -20.39699935913086,32.448001861572266 -7.328999996185303,3.9649999141693115 C-5.982999801635742,41.07699966430664 -0.7459999918937683,70.20800018310547 25.329999923706055,70.20800018310547 C59.89099884033203,70.20800018310547 82.1989974975586,-16.139999389648438 82.1989974975586,-57.6879997253418 C82.1989974975586,-68.67900085449219 76.75,-70.47699737548828 66.65399932861328,-70.47699737548828z"></path></g></g><g transform="matrix(2.940000057220459,0,0,2.940000057220459,389.16998291015625,333.260009765625)" opacity="1" style="display: none;"><g opacity="1" transform="matrix(1,0,0,1,79.33499908447266,71.13200378417969)"><path id="woltLogoColor" fill="rgb(255,255,255)" fill-opacity="1" d=" M66.65399932861328,-70.47699737548828 C62.22200012207031,-70.47699737548828 58.29100036621094,-70.25599670410156 56.347999572753906,-70.05500030517578 C52.47100067138672,-69.65399932861328 51.15800094604492,-65.97100067138672 51.439998626708984,-62.34600067138672 C55.520999908447266,-9.859000205993652 43.96799850463867,51.222999572753906 30.81800079345703,51.222999572753906 C23.847000122070312,51.222999572753906 20.19099998474121,36.749000549316406 18.85300064086914,19.246999740600586 C18.312000274658203,12.166999816894531 -6.618000030517578,18.763999938964844 -5.876999855041504,25.48699951171875 C-2.9820001125335693,51.74399948120117 4.568999767303467,70.20800018310547 25.329999923706055,70.20800018310547 C59.89099884033203,70.20800018310547 82.1989974975586,-16.139999389648438 82.1989974975586,-57.6879997253418 C82.1989974975586,-68.67900085449219 76.75,-70.47699737548828 66.65399932861328,-70.47699737548828z"></path></g></g></g></g></g></g></svg>
